<svg width="78" height="23" viewBox="0 0 78 23" fill="none" xmlns="http://www.w3.org/2000/svg">
<g clip-path="url(#clip0_138_267)">
<path d="M50.1218 14.8686V17.3615C50.1218 20.4756 47.5677 23 44.4168 23H28.0665V18.2703H44.1301C44.8548 18.2703 45.4426 17.6894 45.4426 16.9731V15.0033C45.4426 14.287 44.8548 13.7061 44.1301 13.7061H32.4522C29.427 13.7061 26.832 11.9288 26.832 9.13442V8.81985C26.832 6.57668 28.6719 4.75825 30.9415 4.75825H31.1213C31.2665 4.75825 31.384 4.64214 31.384 4.49858V3.15312C31.384 1.41186 32.8125 0 34.5743 0H48.1682V4.75899H32.3373C31.8813 4.75899 31.5116 5.12438 31.5116 5.5751V7.96887C31.5116 8.66553 32.0828 9.23012 32.7877 9.23012H44.4164C47.5673 9.23012 50.1214 11.7545 50.1214 14.8686H50.1218Z" fill="url(#paint0_radial_138_267)"/>
<path d="M23.3175 9.23017V14.9217C23.3175 16.771 21.7727 18.2704 19.1011 18.2704H19.0703C18.9251 18.2704 18.8076 18.3865 18.8076 18.53V19.8469C18.8076 21.5882 17.3791 23.0001 15.6173 23.0001H5.72449C2.57363 23.0001 0.0195312 20.4757 0.0195312 17.3615V5.65379C0.0195312 2.53961 2.57363 0.0152588 5.72449 0.0152588H18.6916V4.74457H6.17488C5.42874 4.74457 4.82371 5.34256 4.82371 6.08002V16.9349C4.82371 17.6724 5.42874 18.2704 6.17488 18.2704H17.8002C18.3186 18.2704 18.7386 17.8553 18.7386 17.343V13.7065H16.8049C15.1257 13.7065 13.7647 12.3614 13.7647 10.7018V9.23017H23.3175Z" fill="url(#paint1_radial_138_267)"/>
<path d="M65.346 11.5004L77.2753 23H70.7176L60.1845 12.8759L59.3884 12.1106C59.176 11.9062 58.8198 12.0549 58.8198 12.348V23H54.0156V16.1666C54.0156 13.2605 56.5892 12.1032 58.4978 11.6443C58.625 11.6139 58.625 11.4347 58.4978 11.4039C56.5892 10.9447 54.0156 9.78729 54.0156 6.88122V0.000732422H58.8198V10.6665C58.8198 10.9591 59.176 11.1079 59.3884 10.9039L60.1789 10.1453L70.7447 0.000732422H77.3437L65.346 11.5004Z" fill="url(#paint2_radial_138_267)"/>
</g>
<defs>
<radialGradient id="paint0_radial_138_267" cx="0" cy="0" r="1" gradientUnits="userSpaceOnUse" gradientTransform="translate(47.2963 0.363908) scale(29.0874 28.7487)">
<stop stop-color="#FFA300"/>
<stop offset="1" stop-color="#FA3C00"/>
</radialGradient>
<radialGradient id="paint1_radial_138_267" cx="0" cy="0" r="1" gradientUnits="userSpaceOnUse" gradientTransform="translate(0.234635 8.13196) rotate(10.6275) scale(39.0467 15.0632)">
<stop stop-color="#FFA300"/>
<stop offset="1" stop-color="#FA3C00"/>
</radialGradient>
<radialGradient id="paint2_radial_138_267" cx="0" cy="0" r="1" gradientUnits="userSpaceOnUse" gradientTransform="translate(74.4059 0.756399) rotate(160.482) scale(46.9861 15.3654)">
<stop stop-color="#FFA300"/>
<stop offset="1" stop-color="#FA3C00"/>
</radialGradient>
<clipPath id="clip0_138_267">
<rect width="77.3636" height="23" fill="white"/>
</clipPath>
</defs>
</svg>
