<svg width="127" height="30" viewBox="0 0 127 30" fill="none" xmlns="http://www.w3.org/2000/svg">
<g clip-path="url(#clip0_404_10)">
<path d="M4.42177 17.5879C3.6108 17.1476 3.31033 16.1333 3.75065 15.3223L4.14928 14.5881L11.0364 18.3275C11.1716 18.4009 11.2217 18.5699 11.1483 18.7051L10.6168 19.684C10.3232 20.2247 9.64695 20.425 9.1063 20.1314L4.42177 17.5879Z" fill="white"/>
<path d="M27.5986 12.2358C28.4057 12.6832 28.6973 13.7002 28.2499 14.5073L27.8449 15.238L20.6572 11.2538C20.5227 11.1792 20.4741 11.0097 20.5486 10.8752L21.0887 9.90092C21.3869 9.36286 22.0649 9.16845 22.603 9.46671L27.5986 12.2358Z" fill="white"/>
<path d="M12.0429 27.3839C11.2319 26.9436 10.9314 25.9292 11.3717 25.1182L11.7704 24.384L18.5057 28.041C18.6409 28.1144 18.691 28.2835 18.6176 28.4186L18.0861 29.3976C17.7925 29.9382 17.1163 30.1385 16.5756 29.845L12.0429 27.3839Z" fill="white"/>
<path d="M13.6631 0.2028C14.474 -0.237521 15.4884 0.0629497 15.9287 0.87392L16.3274 1.60812L4.33768 8.118L3.67328 6.89435C3.37974 6.3537 3.58005 5.67745 4.1207 5.3839L13.6631 0.2028Z" fill="white"/>
<path d="M27.5711 24.5213C28.3821 24.0809 28.6825 23.0666 28.2422 22.2556L27.8436 21.5214L15.5547 28.1937L16.2191 29.4174C16.5126 29.958 17.1889 30.1583 17.7295 29.8648L27.5711 24.5213Z" fill="white"/>
<path d="M20.2034 20.7004C21.0144 20.2601 21.3149 19.2457 20.8745 18.4347L20.4759 17.7005L12.0927 22.2522C11.2817 22.6926 10.9813 23.7069 11.4216 24.5179L11.8202 25.2521L20.2034 20.7004Z" fill="white"/>
<path d="M19.9197 7.53227C20.7306 7.09195 21.0311 6.07757 20.5908 5.2666L20.1921 4.53241L11.528 9.23667C10.9873 9.53022 10.787 10.2064 11.0805 10.7471L11.7449 11.9707L19.9197 7.53227Z" fill="white"/>
<path d="M19.9417 2.82185C20.7494 3.268 21.0426 4.2845 20.5965 5.09228L20.1925 5.82359L13.2012 1.96221L13.8744 0.74336C14.1718 0.20484 14.8495 0.00939825 15.388 0.30683L19.9417 2.82185Z" fill="white"/>
<path d="M20.4717 18.8163L20.8757 18.085C21.3218 17.2772 21.0286 16.2607 20.2209 15.8145L11.7868 11.1563L11.1136 12.3751C10.8162 12.9137 11.0116 13.5913 11.5501 13.8888L20.4717 18.8163Z" fill="white"/>
<path d="M3.51074 6.71561C3.51074 5.79281 4.25882 5.04474 5.18162 5.04474H6.01705V17.7155H5.18162C4.25882 17.7155 3.51074 16.9674 3.51074 16.0446V6.71561Z" fill="white"/>
<path d="M20.809 4.33353C20.809 3.41074 20.0609 2.66266 19.1381 2.66266H18.3027V7.67528H19.1381C20.0609 7.67528 20.809 6.9272 20.809 6.00441V4.33353Z" fill="white"/>
<path d="M21.0875 17.3524C21.0875 16.4296 20.3394 15.6816 19.4166 15.6816H18.5811V20.903H19.4166C20.3394 20.903 21.0875 20.155 21.0875 19.2322V17.3524Z" fill="white"/>
<path d="M28.4516 13.7323C28.4516 12.8095 27.7035 12.0614 26.7807 12.0614H25.9453V24.6974H26.7807C27.7035 24.6974 28.4516 23.9493 28.4516 23.0265V13.7323Z" fill="white"/>
<path d="M11.1162 23.7575C11.1162 22.8347 11.8643 22.0867 12.7871 22.0867H13.6225V27.5518H12.7871C11.8643 27.5518 11.1162 26.8037 11.1162 25.8809V23.7575Z" fill="white"/>
<path d="M10.9229 10.3208C10.9229 9.70563 11.4216 9.20691 12.0368 9.20691H13.4292V14.0107H12.0368C11.4216 14.0107 10.9229 13.512 10.9229 12.8968V10.3208Z" fill="white"/>
<path d="M35.9238 18.0893H38.322C38.322 18.8659 38.6799 19.5359 39.3955 20.0993C40.1264 20.6627 41.0629 20.9444 42.2049 20.9444C43.4535 20.9444 44.3747 20.7312 44.9686 20.3048C45.5624 19.8633 45.8593 19.277 45.8593 18.5461C45.8593 17.3737 44.9457 16.6123 43.1185 16.2621L40.035 15.6911C38.7864 15.4627 37.8424 14.983 37.2028 14.2521C36.5785 13.5212 36.2664 12.5924 36.2664 11.4656C36.2664 10.1256 36.7841 9.01407 37.8195 8.13091C38.855 7.23253 40.2406 6.78333 41.9765 6.78333C43.8951 6.78333 45.3797 7.27058 46.4303 8.24511C47.4962 9.2044 48.0292 10.4302 48.0292 11.9224H45.6309C45.6309 11.1459 45.2959 10.4759 44.626 9.91246C43.956 9.34907 43.0728 9.06737 41.9765 9.06737C40.941 9.06737 40.1264 9.30339 39.5326 9.77541C38.9539 10.2322 38.6646 10.7956 38.6646 11.4656C38.6646 12.5924 39.464 13.3157 41.0629 13.6355L43.5753 14.0923C45.1894 14.3816 46.3694 14.8841 47.1156 15.5997C47.8769 16.3002 48.2576 17.2823 48.2576 18.5461C48.2576 19.9166 47.7322 21.0433 46.6816 21.9265C45.6309 22.7944 44.1387 23.2284 42.2049 23.2284C40.2711 23.2284 38.7408 22.7411 37.614 21.7666C36.4872 20.7921 35.9238 19.5663 35.9238 18.0893ZM50.4274 23V7.01174H52.7114V12.7218H52.8256C53.0845 12.463 53.3662 12.2346 53.6707 12.0366C54.4016 11.5798 55.2239 11.3514 56.1375 11.3514C57.5232 11.3514 58.6271 11.7854 59.4494 12.6533C60.2868 13.506 60.7056 14.6709 60.7056 16.1479V23H58.4215V16.1479C58.4215 15.4018 58.1551 14.7622 57.6221 14.2293C57.1044 13.6811 56.4573 13.407 55.6807 13.407C54.8432 13.407 54.1352 13.6811 53.5565 14.2293C52.9931 14.7622 52.7114 15.4018 52.7114 16.1479V23H50.4274ZM65.7779 20.1221C66.4327 20.8226 67.2549 21.1728 68.2447 21.1728C69.2344 21.1728 70.0491 20.8226 70.6886 20.1221C71.3434 19.4064 71.6707 18.4624 71.6707 17.2899C71.6707 16.1174 71.3434 15.181 70.6886 14.4805C70.0491 13.7649 69.2344 13.407 68.2447 13.407C67.2549 13.407 66.4327 13.7649 65.7779 14.4805C65.1384 15.181 64.8186 16.1174 64.8186 17.2899C64.8186 18.4624 65.1384 19.4064 65.7779 20.1221ZM72.3331 21.5839C71.2672 22.6802 69.9044 23.2284 68.2447 23.2284C66.5849 23.2284 65.2145 22.6802 64.1334 21.5839C63.0675 20.4876 62.5346 19.0562 62.5346 17.2899C62.5346 15.5236 63.0675 14.0923 64.1334 12.9959C65.2145 11.8996 66.5849 11.3514 68.2447 11.3514C69.9044 11.3514 71.2672 11.8996 72.3331 12.9959C73.4142 14.0923 73.9548 15.5236 73.9548 17.2899C73.9548 19.0562 73.4142 20.4876 72.3331 21.5839ZM84.4631 23L84.2347 21.6296H84.1205C83.3135 22.6955 82.1334 23.2284 80.5803 23.2284C79.0576 23.2284 77.8013 22.6878 76.8116 21.6067C75.8218 20.5256 75.327 19.0867 75.327 17.2899C75.327 15.4931 75.8218 14.0542 76.8116 12.9731C77.8013 11.892 79.0576 11.3514 80.5803 11.3514C81.2502 11.3514 81.8593 11.4732 82.4075 11.7169C82.9709 11.9453 83.3363 12.1432 83.5038 12.3107C83.6713 12.463 83.8769 12.6762 84.1205 12.9502H84.2347V7.01174H86.5188V23H84.4631ZM78.5475 20.0993C79.187 20.8149 79.9788 21.1728 80.9229 21.1728C81.8669 21.1728 82.6511 20.8149 83.2754 20.0993C83.915 19.3836 84.2347 18.4472 84.2347 17.2899C84.2347 16.1327 83.915 15.1962 83.2754 14.4805C82.6511 13.7649 81.8669 13.407 80.9229 13.407C79.9788 13.407 79.187 13.7649 78.5475 14.4805C77.9232 15.1962 77.611 16.1327 77.611 17.2899C77.611 18.4472 77.9232 19.3836 78.5475 20.0993ZM89.2507 23V7.01174H91.5347V12.7218H91.6489C91.9078 12.463 92.1895 12.2346 92.494 12.0366C93.2249 11.5798 94.0471 11.3514 94.9608 11.3514C96.3464 11.3514 97.4504 11.7854 98.2726 12.6533C99.1101 13.506 99.5288 14.6709 99.5288 16.1479V23H97.2448V16.1479C97.2448 15.4018 96.9783 14.7622 96.4454 14.2293C95.9277 13.6811 95.2805 13.407 94.504 13.407C93.6665 13.407 92.9584 13.6811 92.3798 14.2293C91.8164 14.7622 91.5347 15.4018 91.5347 16.1479V23H89.2507ZM105.363 23L111.187 7.01174H114.841L120.666 23H118.039L116.669 19.2313H109.36L107.989 23H105.363ZM110.159 17.0615H115.869L113.242 9.75258H112.786L110.159 17.0615ZM121.92 23V7.01174H124.318V23H121.92Z" fill="white"/>
</g>
<defs>
<clipPath id="clip0_404_10">
<rect width="127" height="30" fill="white"/>
</clipPath>
</defs>
</svg>
