<svg width="109" height="23" viewBox="0 0 109 23" fill="none" xmlns="http://www.w3.org/2000/svg">
<g clip-path="url(#clip0_138_261)">
<path d="M38.484 13.2473L37.8342 15.0659H37.7801C37.6718 14.6558 37.4733 14.0318 37.1484 13.283L33.665 4.63568H30.2539V18.4179H32.51V9.9132C32.51 9.37831 32.51 8.77211 32.4919 8.02328C32.4739 7.64886 32.4378 7.36358 32.4197 7.14963H32.4739C32.5821 7.68452 32.7085 8.07676 32.7987 8.32638L36.9859 18.3822H38.5742L42.7253 8.23723C42.8156 8.00545 42.9058 7.54188 42.9961 7.14963H43.0502C42.9961 8.16591 42.96 9.07521 42.9419 9.62793V18.3644H45.3423V4.60002H42.0575L38.484 13.2473ZM47.6164 8.48684H49.9627V18.3644H47.6164V8.48684ZM48.8076 4.31475C48.4106 4.31475 48.0857 4.45738 47.815 4.707C47.5442 4.95661 47.3999 5.27754 47.3999 5.66979C47.3999 6.04421 47.5442 6.36514 47.815 6.61475C48.0857 6.86436 48.4106 6.98917 48.8076 6.98917C49.2047 6.98917 49.5476 6.84653 49.8003 6.61475C50.071 6.36514 50.2154 6.04421 50.2154 5.66979C50.2154 5.29537 50.071 4.97444 49.8003 4.707C49.5657 4.45738 49.2227 4.31475 48.8076 4.31475ZM58.283 8.39769C57.8499 8.30855 57.3987 8.25506 56.9655 8.25506C55.9006 8.25506 54.926 8.48684 54.1139 8.95041C53.3017 9.41397 52.6519 10.0558 52.2368 10.8582C51.8037 11.6783 51.5871 12.6233 51.5871 13.7109C51.5871 14.6558 51.8037 15.4938 52.2188 16.2605C52.6339 17.0093 53.2114 17.6155 53.9875 18.0256C54.7275 18.4357 55.5938 18.6496 56.5684 18.6496C57.6874 18.6496 58.644 18.4179 59.402 17.9899L59.4201 17.9721V15.8326L59.3298 15.9039C58.9869 16.1535 58.5898 16.3675 58.1928 16.4923C57.7777 16.6349 57.3987 16.7062 57.0738 16.7062C56.1353 16.7062 55.3953 16.4388 54.8719 15.8504C54.3304 15.2799 54.0597 14.4954 54.0597 13.5147C54.0597 12.4985 54.3304 11.6961 54.8899 11.1078C55.4494 10.5194 56.1894 10.2163 57.0918 10.2163C57.8499 10.2163 58.6259 10.4659 59.3298 10.9651L59.4201 11.0365V8.77211L59.402 8.75428C59.0952 8.62948 58.7523 8.48684 58.283 8.39769ZM66.0258 8.32638C65.4482 8.32638 64.9068 8.50467 64.4375 8.87909C64.0405 9.20002 63.7697 9.66359 63.5351 10.2163H63.5171V8.48684H61.1708V18.3644H63.5171V13.3186C63.5171 12.4628 63.6975 11.7496 64.0946 11.2326C64.4917 10.6977 64.997 10.4303 65.6107 10.4303C65.8272 10.4303 66.0438 10.4837 66.3146 10.5194C66.5672 10.5907 66.7477 10.662 66.8741 10.7512L66.9643 10.8225V8.50467L66.9102 8.48684C66.7477 8.37986 66.4228 8.32638 66.0258 8.32638ZM72.4149 8.27289C70.7725 8.27289 69.455 8.75428 68.5345 9.69924C67.596 10.6442 67.1448 11.9458 67.1448 13.5861C67.1448 15.1194 67.614 16.3675 68.5165 17.2768C69.4189 18.1682 70.6462 18.6318 72.1803 18.6318C73.7866 18.6318 75.068 18.1504 75.9885 17.1876C76.927 16.2248 77.3782 14.9411 77.3782 13.3543C77.3782 11.7853 76.945 10.5372 76.0607 9.62793C75.2124 8.71862 73.9671 8.27289 72.4149 8.27289ZM74.2919 15.8682C73.8588 16.421 73.1729 16.6884 72.3247 16.6884C71.4764 16.6884 70.7906 16.421 70.3032 15.8326C69.8159 15.2799 69.5813 14.4775 69.5813 13.4613C69.5813 12.4093 69.834 11.607 70.3032 11.0365C70.7906 10.4659 71.4583 10.1806 72.3066 10.1806C73.1368 10.1806 73.7866 10.4481 74.2558 11.0008C74.7251 11.5535 74.9778 12.3558 74.9778 13.4078C74.9417 14.4775 74.7431 15.3155 74.2919 15.8682ZM82.6122 12.5876C81.8723 12.2845 81.403 12.0527 81.1864 11.8566C81.0059 11.6783 80.9157 11.4287 80.9157 11.1078C80.9157 10.8403 81.024 10.5729 81.2947 10.3946C81.5654 10.2163 81.8723 10.1272 82.3235 10.1272C82.7205 10.1272 83.1356 10.1985 83.5327 10.3054C83.9298 10.4124 84.2907 10.5729 84.5795 10.7868L84.6698 10.8582V8.68297L84.6156 8.66514C84.3449 8.55816 83.9839 8.45118 83.5508 8.36204C83.1176 8.29072 82.7205 8.25506 82.3957 8.25506C81.2767 8.25506 80.3562 8.5225 79.6343 9.11087C78.9123 9.66359 78.5694 10.4124 78.5694 11.2861C78.5694 11.7496 78.6416 12.1597 78.804 12.4985C78.9665 12.8372 79.2011 13.1582 79.526 13.4256C79.8508 13.6752 80.3201 13.9605 80.9698 14.2279C81.5113 14.4597 81.9264 14.638 82.1791 14.7806C82.4317 14.9233 82.5942 15.0837 82.7205 15.2085C82.8108 15.3512 82.8649 15.5295 82.8649 15.7613C82.8649 16.421 82.3596 16.7419 81.3308 16.7419C80.9337 16.7419 80.5186 16.6706 80.0313 16.5101C79.544 16.3496 79.0928 16.1179 78.7138 15.8504L78.6235 15.7791V18.0434L78.6777 18.0613C79.0206 18.2217 79.4357 18.3287 79.9411 18.4535C80.4464 18.5427 80.8976 18.614 81.2947 18.614C82.5039 18.614 83.4966 18.3465 84.2005 17.7582C84.9224 17.1876 85.3014 16.4566 85.3014 15.5116C85.3014 14.852 85.121 14.2636 84.7239 13.8179C84.2005 13.3899 83.5508 12.9442 82.6122 12.5876ZM91.492 8.27289C89.8496 8.27289 88.5321 8.75428 87.6116 9.69924C86.6912 10.6442 86.2219 11.9458 86.2219 13.5861C86.2219 15.1194 86.6912 16.3675 87.5936 17.2768C88.496 18.1682 89.7233 18.6318 91.2574 18.6318C92.8637 18.6318 94.1451 18.1504 95.0656 17.1876C96.0041 16.2248 96.4553 14.9411 96.4553 13.3543C96.4553 11.7853 96.0222 10.5372 95.1378 9.62793C94.2895 8.71862 93.0442 8.27289 91.492 8.27289ZM93.351 15.8682C92.9179 16.421 92.232 16.6884 91.3837 16.6884C90.5174 16.6884 89.8496 16.421 89.3623 15.8326C88.875 15.2799 88.6404 14.4775 88.6404 13.4613C88.6404 12.4093 88.8931 11.607 89.3623 11.0365C89.8496 10.4659 90.5174 10.1806 91.3657 10.1806C92.1779 10.1806 92.8457 10.4481 93.3149 11.0008C93.7842 11.5535 94.0369 12.3558 94.0369 13.4078C94.0369 14.4775 93.8022 15.3155 93.351 15.8682ZM108.999 10.3946V8.48684H106.635V5.56281L106.562 5.58064L104.324 6.24033L104.27 6.25816V8.48684H100.733V7.23878C100.733 6.66824 100.877 6.2225 101.13 5.93723C101.383 5.65196 101.762 5.50932 102.231 5.50932C102.556 5.50932 102.899 5.58064 103.278 5.7411L103.368 5.79459V3.77986L103.314 3.76203C102.989 3.65506 102.556 3.58374 101.996 3.58374C101.292 3.58374 100.679 3.74421 100.119 4.01165C99.5597 4.31475 99.1445 4.72483 98.8377 5.27754C98.5309 5.81242 98.3685 6.41862 98.3685 7.11397V8.48684H96.7261V10.3768H98.3685V18.3644H100.733V10.3946H104.27V15.476C104.27 17.562 105.263 18.614 107.248 18.614C107.573 18.614 107.916 18.5605 108.241 18.507C108.584 18.4357 108.837 18.3465 108.981 18.2752L108.999 18.2574V16.3496L108.909 16.4209C108.764 16.5101 108.638 16.5814 108.421 16.6349C108.241 16.6884 108.078 16.7062 107.952 16.7062C107.483 16.7062 107.158 16.5992 106.923 16.3318C106.707 16.0822 106.599 15.6721 106.599 15.0659V10.3946H108.999Z" fill="#737373"/>
<path d="M0 0H11.0637V10.9295H0V0Z" fill="#F25022"/>
<path d="M12.2227 0H23.2863V10.9295H12.2227V0Z" fill="#7FBA00"/>
<path d="M0.00390625 12.0706H11.0676V23H0.00390625V12.0706Z" fill="#00A4EF"/>
<path d="M12.2227 12.0706H23.2863V23H12.2227V12.0706Z" fill="#FFB900"/>
</g>
<defs>
<clipPath id="clip0_138_261">
<rect width="109" height="23" fill="white"/>
</clipPath>
</defs>
</svg>
