<svg width="150" height="21" viewBox="0 0 150 21" fill="none" xmlns="http://www.w3.org/2000/svg">
<path d="M67.1405 3.81744C65.6833 3.7933 64.5424 4.19048 64.2278 5.22288C63.5771 7.35614 67.7872 9.64538 69.7717 10.7365C70.1982 10.9697 70.3807 10.8242 70.1109 10.512C68.8568 9.06682 67.0731 6.22088 69.5903 4.55065C69.7129 4.4698 69.8621 4.37789 69.996 4.29978L70.0362 4.27764L69.996 4.27054C69.0036 3.99811 68.0145 3.83192 67.1405 3.81744ZM80.6796 10.1377C80.4613 10.0949 80.4078 10.2348 80.6117 10.469C81.8638 11.914 83.6506 14.7592 81.1309 16.4304V16.429C81.0106 16.5098 80.8641 16.6022 80.7281 16.6812L80.6867 16.7048L80.7281 16.7105C83.3726 17.4369 85.99 17.4096 86.4934 15.7568C87.1444 13.6236 82.9362 11.3348 80.9495 10.2446C80.8436 10.1863 80.7526 10.152 80.6796 10.1377Z" fill="#F67200"/>
<path d="M133.745 1.06885C132.944 1.06885 132.296 1.71861 132.296 2.51864C132.296 3.31889 132.944 3.96844 133.745 3.96844C134.543 3.96844 135.19 3.31889 135.19 2.51864C135.19 1.71861 134.543 1.06885 133.745 1.06885ZM103.935 2.4341V5.20616H101.708V7.07455H103.935V12.9555C103.935 14.3021 104.2 16.7574 107.602 16.7574C108.455 16.7574 109.001 16.6986 109.752 16.5966V14.6493C109.752 14.6493 108.977 14.8475 108.287 14.8475C106.489 14.8475 106.096 14.1089 106.096 12.7019V7.07455H109.652V5.20616H106.096V2.4341H103.935ZM116.434 4.97193C112.859 4.97193 110.184 7.29951 110.184 10.925V11.0164C110.184 14.5524 112.874 16.835 116.777 16.835C118.653 16.835 120.406 16.3655 122.013 14.8211L120.427 13.4268C120.427 13.4268 119.067 14.8488 116.774 14.8488C114.645 14.8488 112.58 13.4982 112.483 11.7081L122.376 11.6665C122.426 11.2184 122.426 10.7254 122.426 10.7254C122.426 7.57022 119.985 4.97193 116.433 4.97193H116.434ZM142.473 5.04261C140.03 5.04261 136.51 6.52233 136.51 10.8806C136.51 15.1978 139.676 16.8115 142.448 16.8115C145.21 16.8115 146.595 15.2744 146.595 15.2744L146.707 16.8087H148.732V5.19647H146.711L146.595 6.63655C146.595 6.63655 145.251 5.04261 142.473 5.04261ZM95.0194 5.05092C92.6856 5.05092 90.1799 5.93492 90.1799 8.30255C90.1799 10.3525 92.0419 10.9902 95.1149 11.5695C97.1675 11.9553 99.0613 12.1515 99.0613 13.2604C99.0613 13.9594 98.1292 14.8557 95.8002 14.8557C94.1467 14.8557 92.4774 14.508 91.9673 13.3283L89.9766 14.1655C90.7932 15.9865 92.9585 16.9293 95.4692 16.9293C100.484 16.9293 101.452 14.5424 101.452 13.1869C101.452 10.9295 99.2084 10.2814 96.9698 9.88126C94.7428 9.48295 92.5526 9.20495 92.5526 8.16534C92.5526 7.48838 93.2264 6.89019 95.1746 6.89019C96.6236 6.89019 98.2949 7.2274 98.7487 8.25543L100.801 7.39055C100.017 5.81069 97.6909 5.05092 95.0194 5.05092ZM130.232 5.18396C128.459 5.16765 127.155 5.70506 126.107 6.7987L125.991 5.20061H123.893V16.8017H126.107V10.7891C126.107 9.11275 127.456 6.9872 131.021 7.18681V5.22416C130.748 5.1992 130.485 5.18633 130.232 5.18396ZM132.636 5.19371V16.7851H134.85V5.19371H132.636ZM142.566 6.9803C144.711 6.9803 146.595 8.19858 146.595 10.8598C146.595 13.5193 144.937 14.8488 142.588 14.8488C141.356 14.8488 138.76 14.0626 138.76 10.9056C138.76 7.69793 141.35 6.9803 142.566 6.9803ZM116.463 7.04126C118.409 7.04126 119.994 8.35492 119.994 9.93115H112.519C112.657 8.32903 114.379 7.04126 116.463 7.04126Z" fill="white" fill-opacity="0.8"/>
<path d="M19.3908 5.04102C16.4311 5.04102 12.9264 6.52259 12.9264 10.8818C12.9264 15.1981 16.0796 16.875 19.3908 16.875C22.7042 16.875 25.8566 15.1981 25.8566 10.8818C25.8566 6.52259 22.3527 5.04102 19.3908 5.04102ZM33.297 5.04245C30.5187 5.04245 29.1745 6.6364 29.1745 6.6364L29.0584 5.19628H27.0373V19.9313H29.1745V15.0469C29.1745 15.0469 30.5489 16.8113 33.3204 16.8113C36.0942 16.8113 39.2601 15.4726 39.2601 10.8804C39.2601 6.28983 35.7396 5.04245 33.297 5.04245ZM53.5483 5.04245C51.1035 5.04245 47.5852 6.52214 47.5852 10.8804C47.5852 15.1976 50.752 16.8113 53.5235 16.8113C56.2858 16.8113 57.6708 15.2742 57.6708 15.2742L57.7883 16.8085H59.8052V5.19628H57.7841L57.6708 6.6364C57.6708 6.6364 56.3244 5.04245 53.5483 5.04245ZM5.61061 5.05073C3.27461 5.05073 0.768508 5.93476 0.768508 8.3024C0.768508 10.3523 2.63078 10.99 5.70613 11.5693C7.75861 11.9551 9.6512 12.1514 9.6512 13.2603C9.6512 13.9592 8.71911 14.8556 6.38993 14.8556C4.73661 14.8556 3.06585 14.5079 2.55557 13.3282L0.566406 14.1653C1.3806 15.9863 3.54847 16.9291 6.05909 16.9291C11.0713 16.9291 12.0404 14.5423 12.0404 13.1868C12.0404 10.9293 9.7972 10.2812 7.561 9.88107C5.33159 9.48276 3.14249 9.20479 3.14249 8.16516C3.14249 7.48823 3.81469 6.89003 5.76286 6.89003C7.21435 6.89003 8.88478 7.22724 9.33838 8.25527L11.394 7.39037C10.607 5.81054 8.28224 5.05073 5.61061 5.05073ZM46.9567 5.1838C45.1832 5.16747 43.8773 5.70487 42.8317 6.79854L42.7168 5.20042H40.6153V16.8016H42.8317V10.7889C42.8317 9.11257 44.1818 6.98702 47.7472 7.18662V5.224C47.4739 5.19902 47.21 5.18614 46.9567 5.1838ZM53.6413 6.98011C55.7866 6.98011 57.6708 8.19837 57.6708 10.8596C57.6708 13.5191 56.0128 14.8486 53.6632 14.8486C52.4294 14.8486 49.8359 14.0623 49.8359 10.9054C49.8359 7.69775 52.4232 6.98011 53.6413 6.98011ZM33.2041 6.98152C34.4198 6.98152 37.0122 7.46 37.0122 10.9054C37.0122 14.3499 34.4134 14.8487 33.1821 14.8487C30.8325 14.8487 29.1745 13.5191 29.1745 10.8597C29.1745 8.1984 31.0587 6.98152 33.2041 6.98152ZM19.3908 7.04668C20.9489 7.04668 23.6044 7.69687 23.6044 10.9054C23.6044 14.0624 21.2097 14.8487 19.3908 14.8487C17.5741 14.8487 15.1744 14.0624 15.1744 10.9054C15.1744 7.69687 17.8349 7.04668 19.3908 7.04668Z" fill="white" fill-opacity="0.8"/>
<path d="M79.2421 2.18188C73.3638 2.18188 70.0342 4.27759 70.0342 4.27759C73.9373 5.01289 81.6568 8.94297 84.1356 8.94297C85.0993 8.94297 85.5627 8.0048 85.5627 6.88889C85.5627 5.58652 85.0999 4.16953 84.2449 3.32953C83.4351 2.53017 81.5193 2.18188 79.2421 2.18188ZM66.5861 12.0366C65.6221 12.0366 65.1602 12.9753 65.1602 14.0921C65.1602 15.3945 65.6227 16.8105 66.4754 17.6515C67.2872 18.4499 69.2038 18.8005 71.4807 18.8005C77.3571 18.8005 80.6889 16.7034 80.6889 16.7034C76.7855 15.9681 69.0649 12.0366 66.5861 12.0366Z" fill="#DE1823"/>
</svg>
