<svg width="45" height="45" viewBox="0 0 45 45" fill="none" xmlns="http://www.w3.org/2000/svg">
<g clip-path="url(#clip0_138_282)">
<path fill-rule="evenodd" clip-rule="evenodd" d="M0 0H45V45H0V0Z" fill="white"/>
<path d="M9.16947 5.46219V19.6516H12.2294V5.4832H15.628V19.6516H25.3601V5.63308H28.8222V19.6306H32.0309V5.63308H35.5364V19.6306H38.7441V2.38501H22.2789V16.5103H18.7514V2.40602H6.25781V5.46219H9.16947Z" stroke="black" stroke-width="0.465044" stroke-miterlimit="2.613"/>
<path fill-rule="evenodd" clip-rule="evenodd" d="M7.6093 28.9388H7.11157V24.9136H6.03394V24.449H8.69884V24.9136H7.6093V28.9388ZM9.15688 24.4497H11.4723V24.915H9.65437V26.2492H11.4188V26.7133H9.65437V28.4761H11.4723V28.9407H9.15688V24.4497ZM15.5554 25.4333C15.2004 25.0639 14.7085 24.8373 14.1937 24.8373C13.1989 24.8373 12.3933 25.7069 12.3933 26.6953C12.3933 27.6842 13.2048 28.5534 14.2054 28.5534C14.7085 28.5534 15.2004 28.3153 15.5554 27.9583V28.577C15.1702 28.8564 14.6966 29.0175 14.2231 29.0175C12.9617 29.0175 11.896 27.9875 11.896 26.7131C11.896 25.4267 12.944 24.3727 14.2231 24.3727C14.7204 24.3727 15.1583 24.5158 15.5554 24.8137V25.4333ZM18.8217 26.2728V24.4497H19.3192V28.9407H18.8217V26.7369H16.5362V28.9407H16.0392V24.4497H16.5362V26.2728H18.8217ZM19.8414 24.2578L23.323 27.9266V24.449H23.8205V29.1417L20.3392 25.479V28.9388H19.8414V24.2578ZM24.9838 28.9407H24.4868V24.4497H24.9838V28.9407ZM27.7682 25.3385C27.5903 25.0285 27.3769 24.8501 26.998 24.8501C26.6014 24.8501 26.258 25.1356 26.258 25.5467C26.258 25.9338 26.6546 26.1126 26.9569 26.2499L27.2525 26.3804C27.8329 26.6367 28.3245 26.9285 28.3245 27.6434C28.3245 28.4294 27.6968 29.0308 26.921 29.0308C26.2048 29.0308 25.6715 28.5662 25.5298 27.8689L26.015 27.7326C26.0801 28.1908 26.4293 28.566 26.9091 28.566C27.3888 28.566 27.827 28.1967 27.827 27.6901C27.827 27.1667 27.4185 26.9878 27.0041 26.7973L26.7319 26.6783C26.2108 26.4402 25.7603 26.1721 25.7603 25.5287C25.7603 24.8316 26.3472 24.3853 27.0102 24.3853C27.5077 24.3853 27.9281 24.6416 28.1651 25.0824L27.7682 25.3385ZM32.311 25.4265C31.9555 25.0572 31.4643 24.8309 30.949 24.8309C29.9541 24.8309 29.1489 25.7006 29.1489 26.689C29.1489 27.6779 29.9601 28.5471 30.9609 28.5471C31.4643 28.5471 31.9555 28.309 32.311 27.9516V28.5707C31.9263 28.8511 31.4519 29.0112 30.9787 29.0112C29.7171 29.0112 28.6518 27.9812 28.6518 26.7068C28.6518 25.4204 29.6991 24.3664 30.9787 24.3664C31.4762 24.3664 31.9144 24.5095 32.311 24.8074V25.4265ZM35.5873 26.2714V24.449H36.0841V28.9388H35.5873V26.7355H33.3013V28.9388H32.8041V24.449H33.3013V26.2714H35.5873ZM36.6624 24.4497H38.9774V24.915H37.1599V26.2492H38.9244V26.7133H37.1599V28.4761H38.9774V28.9407H36.6624V24.4497ZM6.92948 37.6661L8.552 41.4355L10.1801 37.6661L11.0862 42.4127H10.5768L10.0025 39.3755H9.99055L8.552 42.5969L7.11905 39.3755H7.10714L6.5326 42.4127H6.02344L6.92948 37.6661ZM16.694 37.7317L20.1755 41.4V37.9222H20.6728V42.6151L17.1913 38.9525V42.4127H16.694V37.7317ZM25.4145 38.9237C25.0594 38.5544 24.5682 38.3287 24.053 38.3287C23.058 38.3287 22.2528 39.1978 22.2528 40.1863C22.2528 41.1747 23.0641 42.0448 24.0644 42.0448C24.5682 42.0448 25.0594 41.8064 25.4145 41.4488V42.0684C25.0298 42.3483 24.5563 42.5094 24.0826 42.5094C22.8215 42.5094 21.7558 41.4784 21.7558 40.204C21.7558 38.9177 22.8033 37.8641 24.0826 37.8641C24.5797 37.8641 25.0183 38.0067 25.4145 38.3051V38.9237ZM29.4818 39.7457V37.9231H29.9793V42.4137H29.4818V40.2103H27.1965V42.4137H26.699V37.9231H27.1965V39.7457H29.4818ZM31.3886 37.9222H33.7041V38.387H31.8861V39.7203H33.6508V40.1853H31.8861V41.9482H33.7041V42.4127H31.3886V37.9222ZM34.9953 37.7317L38.4775 41.4V37.9222H38.9746V42.6151L35.4933 38.9525V42.4127H34.9953V37.7317ZM12.6386 40.5801C12.6386 40.9139 12.6265 41.2947 12.834 41.5805C13.0294 41.8545 13.4081 42.0096 13.7338 42.0096C14.0534 42.0096 14.4029 41.8604 14.6099 41.6106C14.8471 41.3241 14.8294 40.9317 14.8294 40.5801V37.9063H15.3264V40.7174C15.3264 41.2058 15.2912 41.5924 14.9358 41.9617C14.6279 42.2951 14.1839 42.4737 13.7338 42.4737C13.3136 42.4737 12.8812 42.313 12.5793 42.0154C12.189 41.6402 12.1414 41.2289 12.1414 40.7171V37.9061H12.6386V40.5801Z" fill="black"/>
<path fill-rule="evenodd" clip-rule="evenodd" d="M13.24 38.5557C13.4177 38.5557 13.5617 38.4108 13.5617 38.2315C13.5617 38.0526 13.4174 37.9077 13.24 37.9077C13.0619 37.9077 12.9179 38.0526 12.9179 38.2315C12.9176 38.3172 12.9514 38.3995 13.0118 38.4603C13.0722 38.5211 13.1543 38.5554 13.24 38.5557ZM14.2331 38.5571C14.4108 38.5571 14.5553 38.4117 14.5553 38.2333C14.5553 38.054 14.4108 37.9091 14.2331 37.9091C14.0555 37.9091 13.911 38.054 13.911 38.2333C13.911 38.4117 14.0555 38.5571 14.2331 38.5571ZM6.52117 33.9401C6.52117 34.2739 6.50926 34.6547 6.71633 34.9404C6.91174 35.2145 7.29087 35.3695 7.61631 35.3695C7.93614 35.3695 8.28562 35.2204 8.4927 34.9706C8.72919 34.6841 8.71168 34.2912 8.71168 33.9401V31.2663H9.20918V34.0774C9.20918 34.5658 9.17322 34.9524 8.81814 35.3217C8.51044 35.6551 8.06618 35.8337 7.61631 35.8337C7.19585 35.8337 6.76396 35.673 6.46163 35.3754C6.07106 35.0002 6.02344 34.5893 6.02344 34.0771V31.2661H6.52117V33.9401ZM9.75149 31.0789L13.233 34.7471V31.2694H13.7305V35.9618L10.2488 32.2996V35.7599H9.75149V31.0789ZM14.9842 35.7585H14.4864V31.2677H14.9842V35.7585ZM17.3397 34.6925L18.6128 31.2677H19.1518L17.3397 36.026L15.5279 31.2677H16.0667L17.3397 34.6925ZM19.6927 31.2677H22.0079V31.7323H20.19V33.066H21.9547V33.5306H20.19V35.2939H22.0079V35.7585H19.6927V31.2677ZM23.1052 35.7585H22.6074V31.2677H23.2525C24.0997 31.2677 24.8867 31.4944 24.8867 32.5067C24.8867 33.1975 24.4548 33.6859 23.7677 33.7456L25.1895 35.7587H24.579L23.2294 33.7872H23.1054V35.7585H23.1052Z" fill="black"/>
<path fill-rule="evenodd" clip-rule="evenodd" d="M23.1016 33.3461H23.2547C23.8178 33.3461 24.386 33.2394 24.386 32.5423C24.386 31.8036 23.847 31.7324 23.2489 31.7324H23.1016V33.3461Z" fill="white"/>
<path fill-rule="evenodd" clip-rule="evenodd" d="M27.6442 32.144C27.4667 31.8349 27.2534 31.6561 26.8749 31.6561C26.4778 31.6561 26.1349 31.9416 26.1349 32.3527C26.1349 32.7398 26.531 32.9181 26.8329 33.0549L27.1294 33.1861C27.7098 33.4425 28.2014 33.7343 28.2014 34.4487C28.2014 35.2347 27.5737 35.8361 26.7974 35.8361C26.0812 35.8361 25.548 35.372 25.4062 34.6746L25.8918 34.5378C25.957 34.9966 26.3062 35.3717 26.786 35.3717C27.2657 35.3717 27.7035 35.0024 27.7035 34.4963C27.7035 33.9719 27.2954 33.7931 26.8805 33.6026L26.6083 33.4836C26.0872 33.2452 25.6371 32.9774 25.6371 32.334C25.6371 31.6378 26.2236 31.191 26.8871 31.191C27.3846 31.191 27.8045 31.4473 28.0415 31.8876L27.6442 32.144ZM29.3617 35.7583H28.8649V31.2676H29.3617V35.7583ZM31.6215 35.7597H31.1241V31.7336H30.0467V31.2692H32.7108V31.7336H31.6215V35.7597ZM37.8833 35.7597H37.3863V31.7336H36.3084V31.2692H38.9731V31.7336H37.8833V35.7597ZM33.5448 34.4853L33.0059 35.7597H32.4615L34.5215 31.0544L36.5293 35.7597H35.9778L35.4516 34.4853H33.5448Z" fill="black"/>
<path fill-rule="evenodd" clip-rule="evenodd" d="M34.5102 32.2217L33.7461 34.0207H35.2559L34.5102 32.2217Z" fill="white"/>
<path fill-rule="evenodd" clip-rule="evenodd" d="M35.3982 31.8152C35.5801 31.8152 35.7274 31.667 35.7274 31.4846C35.7274 31.3018 35.5801 31.1541 35.3982 31.1541C35.2168 31.1541 35.0695 31.3018 35.0695 31.4846C35.0694 31.5279 35.0778 31.5708 35.0942 31.6109C35.1106 31.6509 35.1348 31.6874 35.1653 31.7181C35.1959 31.7488 35.2322 31.7731 35.2721 31.7898C35.3121 31.8065 35.3549 31.8151 35.3982 31.8152ZM33.6095 31.8229C33.7914 31.8229 33.9387 31.6747 33.9387 31.4923C33.9387 31.3095 33.7914 31.1613 33.6095 31.1613C33.4286 31.1613 33.2813 31.3095 33.2813 31.4923C33.2811 31.5356 33.2894 31.5785 33.3058 31.6185C33.3222 31.6586 33.3464 31.695 33.3768 31.7257C33.4073 31.7564 33.4436 31.7808 33.4835 31.7974C33.5234 31.8141 33.5662 31.8228 33.6095 31.8229Z" fill="black"/>
</g>
<defs>
<clipPath id="clip0_138_282">
<rect width="45" height="45" fill="white"/>
</clipPath>
</defs>
</svg>
